# xmcd
#
# Track frame offsets: 
#        150
#        15270
#        29737
#        47010
#        63105
#        80217
#        97722
#        113127
#        131882
#        144482
#
# Disc length: 2132 seconds
#
# Revision: 2
# Processed by: cddbd v1.4PL0 Copyright (c) Steve Scherf et al.
# Submitted via: ExactAudioCopy v0.90b3
#
DISCID=7f08520a
DTITLE=Eddie Rabbitt - The Branson Sound
DYEAR=1900
DGENRE=Country
TTITLE0=The Wanderer
TTITLE1=I Wanna Dance With You
TTITLE2=A World Without Love
TTITLE3=We Must Be Doin' Somethin' Right
TTITLE4=Gotta Have You
TTITLE5=Both To Each Other
TTITLE6=Repetitive Regret
TTITLE7=Letter From Home
TTITLE8=That's Why I Fell In Love With You
TTITLE9=She's An Old Cadillac
EXTD=
EXTT0=
EXTT1=
EXTT2=
EXTT3=
EXTT4=
EXTT5=Friends and Lovers with Juice Newton\n
EXTT6=
EXTT7=
EXTT8=
EXTT9=
PLAYORDER=
